<?xml version="1.0" encoding="utf-8"?>
<!-- Generator: Adobe Illustrator 21.0.0, SVG Export Plug-In . SVG Version: 6.00 Build 0)  -->
<svg version="1.1" id="Layer_1" xmlns="http://www.w3.org/2000/svg" xmlns:xlink="http://www.w3.org/1999/xlink" x="0px" y="0px"
	 viewBox="0 0 11 7" style="enable-background:new 0 0 11 7;" xml:space="preserve">
<g>
	<g>
		<path d="M6.1,5.8c0.2-0.2,0.2-0.4,0.1-0.5L1.8,0.8c-0.1-0.1-0.4-0.1-0.5,0L0.9,1.2C0.8,1.4,0.7,1.6,0.9,1.8l4.3,4.4
			c0.1,0.1,0.4,0.1,0.5,0L6.1,5.8z"/>
		<path d="M5.2,6.2c0.2,0.2,0.4,0.2,0.5,0.1l4.4-4.3c0.1-0.1,0.1-0.4,0-0.5L9.7,0.9C9.5,0.8,9.3,0.8,9.2,0.9L4.7,5.2
			c-0.1,0.1-0.1,0.4,0,0.5L5.2,6.2z"/>
	</g>
</g>
</svg>
