<?xml version="1.0" encoding="utf-8"?>
<!-- Generator: Adobe Illustrator 21.0.0, SVG Export Plug-In . SVG Version: 6.00 Build 0)  -->
<svg version="1.1" id="Layer_1" xmlns="http://www.w3.org/2000/svg" xmlns:xlink="http://www.w3.org/1999/xlink" x="0px" y="0px"
	 viewBox="0 0 7 11" style="enable-background:new 0 0 7 11;" xml:space="preserve">
<g>
	<g>
		<path d="M1.2,6.1c0.2,0.2,0.4,0.2,0.5,0.1l4.4-4.3c0.1-0.1,0.1-0.4,0-0.5L5.8,0.9C5.6,0.8,5.4,0.7,5.2,0.9L0.8,5.2
			c-0.1,0.1-0.1,0.4,0,0.5L1.2,6.1z"/>
		<path d="M0.8,5.2C0.7,5.3,0.7,5.6,0.8,5.7l4.3,4.4c0.1,0.1,0.4,0.1,0.5,0l0.4-0.4c0.2-0.2,0.2-0.4,0.1-0.5L1.8,4.7
			c-0.1-0.1-0.4-0.1-0.5,0L0.8,5.2z"/>
	</g>
</g>
</svg>
