<?xml version="1.0" encoding="utf-8"?>
<!-- Generator: Adobe Illustrator 21.0.0, SVG Export Plug-In . SVG Version: 6.00 Build 0)  -->
<svg version="1.1" id="Layer_1" xmlns="http://www.w3.org/2000/svg" xmlns:xlink="http://www.w3.org/1999/xlink" x="0px" y="0px"
	 viewBox="0 0 7 11" style="enable-background:new 0 0 7 11;" xml:space="preserve">
<g>
	<g>
		<path d="M5.8,6.1C5.6,6.3,5.4,6.3,5.2,6.2L0.8,1.8c-0.1-0.1-0.1-0.4,0-0.5l0.4-0.4c0.2-0.2,0.4-0.2,0.5-0.1l4.4,4.3
			c0.1,0.1,0.1,0.4,0,0.5L5.8,6.1z"/>
		<path d="M6.2,5.2c0.2,0.2,0.2,0.4,0.1,0.5l-4.3,4.4c-0.1,0.1-0.4,0.1-0.5,0L0.9,9.7C0.8,9.5,0.8,9.3,0.9,9.2l4.3-4.4
			c0.1-0.1,0.4-0.1,0.5,0L6.2,5.2z"/>
	</g>
</g>
</svg>
