<?xml version="1.0" encoding="utf-8"?>
<!-- Generator: Adobe Illustrator 21.0.0, SVG Export Plug-In . SVG Version: 6.00 Build 0)  -->
<svg version="1.1" id="Layer_1" xmlns="http://www.w3.org/2000/svg" xmlns:xlink="http://www.w3.org/1999/xlink" x="0px" y="0px"
	 viewBox="0 0 11 7" style="enable-background:new 0 0 11 7;" xml:space="preserve">
<g>
	<g>
		<path d="M6.1,1.2c0.2,0.2,0.2,0.4,0.1,0.5L1.8,6.2c-0.1,0.1-0.4,0.1-0.5,0L0.9,5.8C0.8,5.6,0.7,5.4,0.9,5.2l4.3-4.4
			c0.1-0.1,0.4-0.1,0.5,0L6.1,1.2z"/>
		<path d="M5.2,0.8c0.2-0.2,0.4-0.2,0.5-0.1l4.4,4.3c0.1,0.1,0.1,0.4,0,0.5L9.7,6.1C9.5,6.2,9.3,6.2,9.2,6.1L4.7,1.8
			c-0.1-0.1-0.1-0.4,0-0.5L5.2,0.8z"/>
	</g>
</g>
</svg>
