<?xml version="1.0" encoding="utf-8"?>
<!-- Generator: Adobe Illustrator 21.0.0, SVG Export Plug-In . SVG Version: 6.00 Build 0)  -->
<svg version="1.1" id="Layer_1" xmlns="http://www.w3.org/2000/svg" xmlns:xlink="http://www.w3.org/1999/xlink" x="0px" y="0px"
	 viewBox="0 0 17 15" style="enable-background:new 0 0 17 15;" xml:space="preserve">
<style type="text/css">
	.st0{fill:#333333;}
</style>
<g>
	<path class="st0" d="M12.4,1.7c-0.6,0-1,0.2-1.5,0.5c-0.4,0.3-0.7,0.6-1,0.9C8,4.9,6.1,6.7,4.3,8.5c-0.6,0.6-1.2,1.3-1.8,1.9
		c-0.6,0.6-0.6,1.2-0.3,1.9c0.5,1.2,1.5,1.4,2.6,0.8c0.3-0.1,0.5-0.3,0.7-0.5c1.5-1.6,3.1-3.1,4.7-4.6c0.7-0.7,1.5-1.5,2.2-2.2
		c0.2-0.2,0.5-0.6,0.4-1c-0.2-0.6-0.7-0.9-1.2-0.9c-0.2,0-0.4,0.1-0.6,0.2c-0.3,0.2-0.5,0.5-0.8,0.7C8.6,6.3,7,7.9,5.5,9.4
		C5.4,9.5,5.3,9.6,5.2,9.6C5,9.7,4.8,9.6,4.7,9.4C4.6,9.2,4.7,9.1,4.9,9c0.4-0.4,0.8-0.8,1.3-1.2c1.2-1.1,2.3-2.3,3.5-3.4
		c0.3-0.3,0.7-0.7,1.1-0.9c1.5-0.8,2.7,0,2.9,1.3c0.1,0.6-0.2,1.2-0.7,1.6c-1.5,1.5-3.1,3-4.6,4.5c-0.7,0.7-1.5,1.5-2.2,2.2
		C5.6,13.6,5,14,4.2,14.2c-1.5,0.3-2.6-0.4-3.1-1.8c-0.3-1-0.1-1.9,0.6-2.6c1.8-2,3.8-3.8,5.7-5.6c0.8-0.8,1.6-1.5,2.4-2.3
		c0.5-0.4,1-0.8,1.6-0.9c1.6-0.4,3.6,0.5,4.2,2.4c0.3,0.9,0.3,1.7-0.1,2.5c-0.1,0.3-0.3,0.5-0.5,0.7c-1.8,1.8-3.6,3.6-5.4,5.4
		c-0.2,0.2-0.4,0.4-0.6,0.6c-0.2,0.2-0.5,0.2-0.7,0c-0.2-0.2-0.2-0.5,0.1-0.7c1.6-1.5,3.1-3.1,4.7-4.6c0.5-0.4,0.9-0.9,1.3-1.3
		C15,5.4,15.1,4.8,15,4.1c-0.1-1.2-0.9-2.1-2.1-2.3C12.7,1.7,12.6,1.7,12.4,1.7z"/>
</g>
</svg>
