<?xml version="1.0" encoding="utf-8"?>
<!-- Generator: Adobe Illustrator 21.0.0, SVG Export Plug-In . SVG Version: 6.00 Build 0)  -->
<svg version="1.1" id="Layer_1" xmlns="http://www.w3.org/2000/svg" xmlns:xlink="http://www.w3.org/1999/xlink" x="0px" y="0px"
	 viewBox="0 0 30 25" style="enable-background:new 0 0 30 25;" xml:space="preserve">
<style type="text/css">
	.st0{fill:#3F95D1;}
	.st1{fill:none;stroke:#3F95D1;stroke-width:0.9855;stroke-linecap:round;stroke-miterlimit:10;}
	.st2{fill:none;stroke:#3F95D1;stroke-width:1.4008;stroke-linecap:round;stroke-miterlimit:10;}
</style>
<g>
	<path class="st0" d="M25.3,8.5c-0.3-4.4-3.9-8-8.3-8c-2.7,0-5.3,1.3-6.9,3.5c0,0-0.1,0-0.1-0.1c-0.1,0-0.2-0.1-0.3-0.1
		c-0.1,0-0.1,0-0.2-0.1c-0.1,0-0.2-0.1-0.3-0.1c-0.1,0-0.1,0-0.2,0c-0.1,0-0.2,0-0.3-0.1c0,0-0.1,0-0.1,0c-0.2,0-0.3,0-0.5,0
		c-2.4,0-4.4,2-4.4,4.4c0,0.1,0,0.1,0,0.2c-2,1.1-3.5,3.5-3.5,5.8c0,3.5,2.8,6.3,6.3,6.3h2.5c0.3,0,0.5-0.2,0.5-0.5
		s-0.2-0.5-0.5-0.5H6.5c-2.9,0-5.3-2.4-5.3-5.3c0-2,1.3-4.2,3.2-5.1l0.3-0.1V8.4c0-0.1,0-0.1,0-0.2l0-0.1l0-0.1c0,0,0-0.1,0-0.1
		c0-1.9,1.5-3.4,3.4-3.4c0.2,0,0.3,0,0.5,0c0,0,0.1,0,0.1,0c0.1,0,0.3,0.1,0.4,0.1c0,0,0,0,0.1,0c0.1,0,0.3,0.1,0.4,0.2
		c0,0,0.1,0,0.1,0C9.7,4.9,9.9,4.9,10,5c0.9,0.6,1.6,1.7,1.6,2.9c0,0.3,0.2,0.5,0.5,0.5c0.3,0,0.5-0.2,0.5-0.5
		c0-1.4-0.6-2.6-1.6-3.4c1.4-1.8,3.7-3,6.1-3c3.8,0,7,3,7.3,6.8c-0.5,0-1.3-0.1-2,0.1c-0.3,0-0.5,0.3-0.4,0.6c0,0.2,0.2,0.4,0.5,0.4
		c0,0,0,0,0.1,0c1.1-0.2,2.2,0,2.3,0c2.3,0.4,4,2.5,4,4.9c0,2.7-2.2,4.9-4.9,4.9h-2c-0.3,0-0.5,0.2-0.5,0.5s0.2,0.5,0.5,0.5h2
		c3.3,0,5.9-2.7,5.9-5.9C29.8,11.6,27.9,9.2,25.3,8.5z"/>
	<g>
		<g>
			<line class="st1" x1="15" y1="14.2" x2="17.9" y2="17"/>
			<line class="st1" x1="15" y1="14.2" x2="12.1" y2="17"/>
			<line class="st2" x1="15" y1="23.5" x2="15" y2="15.1"/>
		</g>
	</g>
</g>
</svg>
